<?xml version="1.0" encoding="utf-8"?>
<svg xmlns="http://www.w3.org/2000/svg" width="250" height="249" viewBox="0 0 250 249" style="background-color: transparent;">
  <path d="m0.03 29.61c14.73 16.1 29.68 27.78 44.88 27.56 22.28-0.33 37.95-27.1 37.95-57.17h31.4c0.61 37.91-17.78 87.13-64.19 88.06-14.95 0.32-27.08-4.84-39-14.73l-0.52 0.21c7.4 15.89 18.38 25.47 40.44 31.16 10.98 3.02 21.86 4.26 30.22 12.16 14.52 13.36 11.6 32.17 2.53 39.66-4.55 3.71-10.68 3.5-13.02 0.57-1.45-2.07-0.52-3.83 0.94-4.86 4.35-3.51 3.52-10.12-1.98-13.93-2.91-2.07-5.62-3.21-8.06-1.14-5.5 4.54-13.33 2.99-16.81-1.24-1.56-1.86-3.9-0.83-5.25 0.1-5.81 2.71-11.41 0-14.53-4.75-1.77-2.82-4.11-2.71-6.92-2.51-5.92 0.52-10.16-3.71-18.09-11.6v-87.55h0.01z" fill="#0A3A5E"/>
  <path d="m249.9 51.59c-43.75 3.6-86.68 32.15-89.12 72.53-1.03 15.69 6.9 29.25 20.17 30.28 7.2 0.52 9.54-5.57 8.61-9.38-5.71-24.59 18.25-53.66 55.11-57.99 1.66-0.21 3.48-0.41 5.24-0.52v-34.92h-0.01z" fill="#0A3A5E"/>
  <path d="m249.9 233.7c-12.13-12.63-22.39-54.15-61.65-54.46-18.18-0.1-26.01 12.01-26.01 20.77 0 6.09 3.61 9.5 6.32 9.4 1.86-0.11 2.28-1.45 2.28-3.41 0-4.13 4.65-8.88 8.36-8.36 1.35 0.21 1.56 1.34 3.53 1.24 2.14-0.11 2.56-1.76 4.9-1.45 2.24 0.31 3.49 1.86 3.91 3.72-1.25 4.54 0.62 9.59 6.43 10.93 2.14 0.52 2.25 1.75 1.32 4.03-2.15 5.57 0.66 11.56 5.52 12.69 2.34 0.62 2.13 2.79 1.41 5.31-1.25 4.95 1.09 9.8 7.63 14.76h36.04v-15.17h0.01z" fill="#0A3A5E"/>
  <path d="m39.77 248.9c18.28-28.65 48.74-47.87 77.35-47.87 20.82 0 31.59 10.97 31.7 22.24 0 7.19-5.4 11.52-10.58 9.46-1.97-0.82-4.57-4.74-16.07-5.25-15.25-0.41-31.02 9.86-38.75 21.42h-43.65z" fill="#0A3A5E"/>
  <path d="m4.76 112.5c4.35 0 5.38-3.81 5.38-5.05 0-3.22-2.24-5.28-5.05-5.28-3.39 0-5.06 2.67-5.06 5.49 0 2.62 1.77 4.84 4.73 4.84z" fill="#4182B0"/>
  <path d="m4.76 109.8c1.66 0 2.38-1.45 2.38-2.48 0-1.55-1.03-2.48-2.28-2.48-1.56 0-2.18 1.34-2.18 2.48 0 1.34 0.93 2.48 2.08 2.48z" fill="#0A3A5E"/>
  <path d="m16.05 124.5c5.08 1.65 6.64-2.69 6.33-5.72-0.62-4.75-4.66-5.57-6.8-5.06-4.04 0.93-5.18 4.05-4.97 6.11 0.31 2.61 2.18 3.75 5.44 4.67z" fill="#4182B0"/>
  <path d="m16.26 121.3c2.05 0.52 2.88-1.24 2.88-2.59-0.11-2.06-1.56-2.68-2.49-2.58-1.56 0.21-2.18 1.65-2.08 2.79 0.11 1.14 0.84 2.08 1.69 2.38z" fill="#0A3A5E"/>
  <path d="m33.84 134.1c5.81 1.03 6.85-4.03 6.43-6.4-1.03-6.09-6.32-7.02-9.53-5.68-4.35 1.75-4.76 5.68-4.14 7.95 1.03 3.02 3.53 3.63 7.24 4.13z" fill="#4182B0"/>
  <path d="m33.63 130.1c2.24 0.72 3.28-1.24 3.18-2.69-0.31-1.96-1.87-2.47-2.9-2.37-1.66 0.21-2.39 1.66-2.29 2.79 0.11 1.14 0.94 1.97 2.01 2.27z" fill="#0A3A5E"/>
  <path d="m52.85 137.6c5.19 0 6.43-4.44 6.23-6.61-0.83-5.78-6.02-6.29-8.26-5.57-4.04 1.34-4.56 4.16-4.25 6.54 0.52 3.31 3.22 5.64 6.28 5.64z" fill="#4182B0"/>
  <path d="m52.96 133.7c1.76 0 2.49-1.55 2.39-2.79-0.21-1.96-1.77-2.58-2.7-2.47-1.56 0.2-2.29 1.65-2.18 2.68 0.1 1.45 1.24 2.58 2.49 2.58z" fill="#0A3A5E"/>
  <path d="m179 123.5c6.64 0 7.67-6.61 6.85-9.18-1.87-5.78-7.16-5.58-9.03-4.96-5.5 1.55-6.02 6.71-5.29 9.28 1.24 3.82 4.46 4.86 7.47 4.86z" fill="#4182B0"/>
  <path d="m179.3 119.4c2.34 0 2.86-2.16 2.76-3.3-0.31-2.17-2.08-2.89-3.32-2.68-1.97 0.31-2.7 2.06-2.49 3.3 0.31 1.65 1.66 2.68 3.05 2.68z" fill="#0A3A5E"/>
  <path d="m191.3 105.8c6.54-0.51 7.06-6.91 6.44-9.28-1.56-5.58-6.85-6.48-9.76-5.66-4.98 1.55-4.77 6.81-4.25 8.98 1.14 4.23 4.56 6.19 7.57 5.96z" fill="#4182B0"/>
  <path d="m191.2 101.3c2.34 0 2.65-2.27 2.44-3.51-0.52-2.27-2.28-2.58-3.31-2.27-1.77 0.52-2.18 2.17-1.98 3.2 0.31 1.65 1.46 2.58 2.85 2.58z" fill="#0A3A5E"/>
  <path d="m208.9 90.94c6.74-0.51 7.88-7.01 6.95-10.14-1.97-6.09-7.88-6.5-10.48-5.05-4.87 2.52-5.29 7.47-4.26 10.19 1.67 4.13 5.23 5.17 7.79 5z" fill="#4182B0"/>
  <path d="m208.8 86.61c2.55 0.31 3.17-1.96 2.96-3.41-0.41-2.17-2.28-2.79-3.52-2.48-1.87 0.52-2.39 2.37-2.18 3.51 0.31 1.45 1.45 2.28 2.74 2.38z" fill="#0A3A5E"/>
  <path d="m229.7 81.65c6.74-0.52 8.09-7.02 7.06-9.64-2.34-6.91-8.56-6.6-11.06-5.46-4.87 2.16-4.97 7.73-4.14 10.1 1.66 4.07 5.08 5.21 8.14 5z" fill="#4182B0"/>
  <path d="m230.1 77.21c2.44 0 2.96-2.17 2.55-3.62-0.63-2.17-2.49-2.48-3.53-2.17-1.76 0.62-2.18 2.37-1.87 3.51 0.42 1.45 1.56 2.28 2.85 2.28z" fill="#0A3A5E"/>
  <path d="m179.4 198.1c2.34 0 2.34-2.43 1.61-3.46-1.24-1.76-3.48-0.83-3.79 0.31-0.62 1.76 0.52 3.15 2.18 3.15z" fill="#4182B0"/>
  <path d="m189.5 199.1c2.71 0.52 2.91-2.41 2.19-3.65-1.25-2.27-3.8-1.55-4.42-0.42-1.14 2.07 0.21 3.72 2.23 4.07z" fill="#4182B0"/>
  <path d="m199.5 208.7c5.4 0.93 5.71-4.85 5.09-6.81-1.77-4.64-6.22-4.23-7.78-3.2-3.41 2.17-2.79 6.51-1.44 8.16 1.24 1.44 2.7 1.65 4.13 1.85z" fill="#4182B0"/>
  <path d="m199.6 205c1.66 0.72 2.69-0.83 2.59-2.07-0.21-1.76-1.66-2.27-2.59-2.07-1.35 0.31-1.87 1.65-1.66 2.58 0.21 0.83 0.93 1.35 1.66 1.56z" fill="#0A3A5E"/>
  <path d="m208.1 226c5.81 0.93 6.23-4.75 5.61-7.12-1.66-5.68-7.37-5.78-9.51-4.13-3.71 2.82-3.92 6.95-2.15 9.33 1.56 2.27 3.72 1.65 6.05 1.92z" fill="#4182B0"/>
  <path d="m208.4 222.7c1.87 0.62 2.9-1.13 2.8-2.48-0.31-1.96-1.87-2.47-2.9-2.37-1.56 0.31-2.18 1.76-1.98 2.79 0.21 1.04 1.04 1.76 2.08 2.06z" fill="#0A3A5E"/>
  <path d="m215.7 242.9c6.02 1.34 7.05-4.75 6.33-6.91-1.77-5.37-7.16-5.68-9.4-3.72-3.51 2.82-3.31 6.34-2.06 8.4 1.25 2.12 3.12 1.92 5.13 2.23z" fill="#4182B0"/>
  <path d="m215.4 239.5c1.66 1.03 3.11-0.62 3.22-1.86 0.1-1.96-1.35-2.78-2.39-2.78-1.56 0-2.39 1.45-2.39 2.48s0.73 1.75 1.56 2.16z" fill="#0A3A5E"/>
  <path d="m70.09 76.05c6.13 1.75 7.69-3.83 7.07-6.75-1.46-5.47-6.44-5.88-8.78-4.44-4.45 2.62-4.55 6.85-3.31 9.02 1.15 1.96 2.81 1.96 5.02 2.17z" fill="#4182B0"/>
  <path d="m70.2 72.83c2.06 0.83 3.2-1.13 3.2-2.47-0.11-1.97-1.67-2.69-2.8-2.58-1.66 0.2-2.39 1.75-2.29 2.78 0.11 1.04 0.84 1.97 1.89 2.27z" fill="#0A3A5E"/>
  <path d="m83.74 63.93c5.81 0.52 6.84-4.85 6.22-7.33-1.66-5.57-6.74-6.39-9.65-4.54-4.14 2.53-3.52 6.97-2.49 8.83 1.36 2.33 2.92 2.74 5.92 3.04z" fill="#4182B0"/>
  <path d="m83.95 60.42c1.96 0.41 2.79-1.55 2.69-2.79-0.21-1.86-1.77-2.47-2.8-2.27-1.56 0.31-2.29 1.76-2.08 2.89 0.21 1.14 1.04 1.96 2.19 2.17z" fill="#0A3A5E"/>
  <path d="m93.02 47.99c6.02 0.72 6.95-4.65 6.54-7.17-1.25-5.68-6.64-5.89-8.98-4.75-4.35 2.06-4.45 6.71-3.31 8.98 1.24 2.63 3.31 2.73 5.75 2.94z" fill="#4182B0"/>
  <path d="m92.91 44.48c1.97 0.62 2.9-1.34 2.8-2.68-0.31-2.07-1.97-2.58-3.01-2.37-1.56 0.31-2.18 1.86-1.97 2.89 0.21 1.13 1.03 1.96 2.18 2.16z" fill="#0A3A5E"/>
  <path d="m98.73 29.61c6.33-0.51 6.54-6.4 5.51-8.77-2.44-5.26-8.15-3.82-9.18-2.78-3.71 2.82-3.4 7.36-1.63 9.42 1.56 1.82 3.33 2.13 5.3 2.13z" fill="#4182B0"/>
  <path d="m99.04 26.69c2.14-0.31 2.35-2.27 2.04-3.3-0.83-2.27-3.07-2.07-4-1.24-1.35 1.24-1.25 2.99-0.22 3.92 0.63 0.62 1.35 0.62 2.18 0.62z" fill="#0A3A5E"/>
  <path d="m101.5 13.41c5.92-0.51 6.85-5.98 5.6-8.8-2.44-5.37-7.84-4.34-9.5-2.79-3.61 3.12-3.2 7.36-1.43 9.42 1.64 2.07 3.19 2.17 5.33 2.17z" fill="#4182B0"/>
  <path d="m101.7 10.1c2.06-0.31 2.48-2.37 2.06-3.61-0.93-2.52-3.37-2.21-4.2-1.39-1.35 1.35-1.04 3.1-0.21 4.03 0.73 0.86 1.56 0.97 2.35 0.97z" fill="#0A3A5E"/>
  <path d="m105.3 224.4c5.92-0.72 7.16-7.33 4.82-10.55-3.41-4.95-8.7-3.3-10.36-0.68-2.65 4.03-1.2 8.06 1.3 9.92 1.76 1.31 2.69 1.31 4.24 1.31z" fill="#4182B0"/>
  <path d="m105.3 220.3c1.97-0.21 2.49-2.37 1.97-3.71-0.93-2.27-3.17-1.96-4-1.03-1.25 1.55-0.63 3.3 0.2 4.02 0.6 0.51 1.12 0.62 1.83 0.72z" fill="#0A3A5E"/>
  <path d="m88.11 234.1c6.43 0 7.05-5.78 6.33-8.35-2.05-6.2-7.76-6.2-10.2-3.68-3.61 3.62-3.5 7.85-1.16 10.22 1.66 1.6 3.05 1.6 5.03 1.81z" fill="#4182B0"/>
  <path d="m88.01 229.8c1.87 0 2.59-1.96 2.38-3.2-0.51-2.17-2.48-2.68-3.62-2.17-1.66 0.83-1.97 2.48-1.45 3.72 0.52 1.03 1.55 1.65 2.69 1.65z" fill="#0A3A5E"/>
  <path d="m72.03 246.4c6.23 1.24 7.68-4.34 7.27-6.86-1.46-6.5-7.27-7.22-10.38-4.85-4.04 3.03-3.63 7.37-2.17 9.64 1.35 2.07 2.8 1.96 5.28 2.07z" fill="#4182B0"/>
  <path d="m72.34 243.2c1.87 0.31 2.8-1.65 2.59-2.99-0.41-2.17-2.28-2.48-3.31-2.07-1.56 0.72-1.87 2.37-1.35 3.51 0.41 0.83 1.14 1.35 2.07 1.55z" fill="#0A3A5E"/>
</svg>
